# Blender 3.4.1
# www.blender.org
mtllib BoostPadSmall.mtl
o BoostPadSmall
v 52.029205 0.000000 -7.787702
v 52.029205 0.000000 7.787702
v 50.256348 -13.466149 -7.787702
v 50.256348 -13.466149 7.787702
v 45.058609 -26.014603 -7.787702
v 45.058609 -26.014603 7.787702
v 36.790203 -36.790203 -7.787702
v 36.790203 -36.790203 7.787702
v 26.014603 -45.058609 -7.787702
v 26.014603 -45.058609 7.787702
v 13.466149 -50.256348 -7.787702
v 13.466149 -50.256348 7.787702
v 0.000000 -52.029205 -7.787702
v 0.000000 -52.029205 7.787702
v -13.466149 -50.256348 -7.787702
v -13.466149 -50.256348 7.787702
v -26.014603 -45.058609 -7.787702
v -26.014603 -45.058609 7.787702
v -36.790203 -36.790203 -7.787702
v -36.790203 -36.790203 7.787702
v -45.058609 -26.014603 -7.787702
v -45.058609 -26.014603 7.787702
v -50.256348 -13.466149 -7.787702
v -50.256348 -13.466149 7.787702
v -52.029205 0.000000 -7.787702
v -52.029205 0.000000 7.787702
v -50.256348 13.466149 -7.787702
v -50.256348 13.466149 7.787702
v -45.058609 26.014603 -7.787702
v -45.058609 26.014603 7.787702
v -36.790203 36.790203 -7.787702
v -36.790203 36.790203 7.787702
v -26.014603 45.058609 -7.787702
v -26.014603 45.058609 7.787702
v -13.466149 50.256348 -7.787702
v -13.466149 50.256348 7.787702
v 0.000000 52.029205 -7.787702
v 0.000000 52.029205 7.787702
v 13.466149 50.256348 -7.787702
v 13.466149 50.256348 7.787702
v 26.014603 45.058609 -7.787702
v 26.014603 45.058609 7.787702
v 36.790203 36.790203 -7.787702
v 36.790203 36.790203 7.787702
v 45.058609 26.014603 -7.787702
v 45.058609 26.014603 7.787702
v 50.256348 13.466149 -7.787702
v 50.256348 13.466149 7.787702
v 43.369465 -11.620814 7.787702
v 44.899384 0.000000 7.787702
v 38.884007 -22.449692 7.787702
v 31.748659 -31.748659 7.787702
v 22.449688 -38.884003 7.787702
v 11.620816 -43.369473 7.787702
v 0.000000 -44.899384 7.787702
v -11.620812 -43.369473 7.787702
v -22.449692 -38.884003 7.787702
v -31.748659 -31.748659 7.787702
v -38.883999 -22.449692 7.787702
v -43.369465 -11.620814 7.787702
v -44.899384 0.000000 7.787702
v -43.369465 11.620814 7.787702
v -38.883999 22.449692 7.787702
v -31.748659 31.748659 7.787702
v -22.449692 38.884003 7.787702
v -11.620812 43.369473 7.787702
v 0.000000 44.899384 7.787702
v 11.620816 43.369473 7.787702
v 22.449688 38.884003 7.787702
v 31.748659 31.748659 7.787702
v 38.884007 22.449692 7.787702
v 43.369465 11.620814 7.787702
v 43.369465 -11.620814 4.254231
v 44.899384 0.000000 4.254231
v 38.884007 -22.449692 4.254231
v 31.748659 -31.748659 4.254231
v 22.449686 -38.884003 4.254231
v 11.620816 -43.369473 4.254231
v 0.000000 -44.899384 4.254231
v -11.620812 -43.369473 4.254231
v -22.449694 -38.884003 4.254231
v -31.748659 -31.748659 4.254231
v -38.883999 -22.449692 4.254231
v -43.369465 -11.620814 4.254231
v -44.899384 0.000000 4.254231
v -43.369465 11.620814 4.254231
v -38.883999 22.449692 4.254231
v -31.748659 31.748659 4.254231
v -22.449694 38.884003 4.254231
v -11.620812 43.369473 4.254231
v 0.000000 44.899384 4.254231
v 11.620816 43.369473 4.254231
v 22.449686 38.884003 4.254231
v 31.748659 31.748659 4.254231
v 38.884007 22.449692 4.254231
v 43.369465 11.620814 4.254231
v 34.017883 -0.229204 -2.680454
v 34.017883 -0.229204 17.169563
v 32.869526 -8.951829 -2.680454
v 32.869526 -8.951829 17.169563
v 29.502716 -17.080027 -2.680454
v 29.502716 -17.080027 17.169563
v 24.146900 -24.059864 -2.680454
v 24.146900 -24.059864 17.169563
v 17.167061 -29.415682 -2.680454
v 17.167061 -29.415682 17.169563
v 9.038868 -32.782494 -2.680454
v 9.038868 -32.782494 17.169563
v 0.316241 -33.930843 -2.680454
v 0.316241 -33.930843 17.169563
v -8.406385 -32.782494 -2.680454
v -8.406385 -32.782494 17.169563
v -16.534578 -29.415682 -2.680454
v -16.534578 -29.415682 17.169563
v -23.514414 -24.059864 -2.680454
v -23.514414 -24.059864 17.169563
v -28.870234 -17.080027 -2.680454
v -28.870234 -17.080027 17.169563
v -32.237045 -8.951829 -2.680454
v -32.237045 -8.951829 17.169563
v -33.385403 -0.229204 -2.680454
v -33.385403 -0.229204 17.169563
v -32.237045 8.493423 -2.680454
v -32.237045 8.493423 17.169563
v -28.870234 16.621616 -2.680454
v -28.870234 16.621616 17.169563
v -23.514414 23.601456 -2.680454
v -23.514414 23.601456 17.169563
v -16.534578 28.957275 -2.680454
v -16.534578 28.957275 17.169563
v -8.406385 32.324081 -2.680454
v -8.406385 32.324081 17.169563
v 0.316241 33.472435 -2.680454
v 0.316241 33.472435 17.169563
v 9.038868 32.324081 -2.680454
v 9.038868 32.324081 17.169563
v 17.167061 28.957275 -2.680454
v 17.167061 28.957275 17.169563
v 24.146900 23.601456 -2.680454
v 24.146900 23.601456 17.169563
v 29.502716 16.621616 -2.680454
v 29.502716 16.621616 17.169563
v 32.869526 8.493423 -2.680454
v 32.869526 8.493423 17.169563
vn 0.9914 -0.1305 -0.0000
vn 0.9239 -0.3827 -0.0000
vn 0.7934 -0.6088 -0.0000
vn 0.6088 -0.7934 -0.0000
vn 0.3827 -0.9239 -0.0000
vn 0.1305 -0.9914 -0.0000
vn -0.1305 -0.9914 -0.0000
vn -0.3827 -0.9239 -0.0000
vn -0.6088 -0.7934 -0.0000
vn -0.7934 -0.6088 -0.0000
vn -0.9239 -0.3827 -0.0000
vn -0.9914 -0.1305 -0.0000
vn -0.9914 0.1305 -0.0000
vn -0.9239 0.3827 -0.0000
vn -0.7934 0.6088 -0.0000
vn -0.6088 0.7934 -0.0000
vn -0.3827 0.9239 -0.0000
vn -0.1305 0.9914 -0.0000
vn 0.1305 0.9914 -0.0000
vn 0.3827 0.9239 -0.0000
vn 0.6088 0.7934 -0.0000
vn 0.7934 0.6088 -0.0000
vn -0.0000 -0.0000 1.0000
vn 0.9239 0.3827 -0.0000
vn 0.9914 0.1305 -0.0000
vn -0.0000 -0.0000 -1.0000
vt 1.000000 0.500000
vt -0.000000 0.500000
vt 1.000000 1.000000
vt -0.000000 1.000000
vt 0.958333 0.500000
vt 0.958333 1.000000
vt 0.916667 0.500000
vt 0.916667 1.000000
vt 0.875000 0.500000
vt 0.875000 1.000000
vt 0.833333 0.500000
vt 0.833333 1.000000
vt 0.791667 0.500000
vt 0.791667 1.000000
vt 0.750000 0.500000
vt 0.750000 1.000000
vt 0.708333 0.500000
vt 0.708333 1.000000
vt 0.666667 0.500000
vt 0.666667 1.000000
vt 0.625000 0.500000
vt 0.625000 1.000000
vt 0.583333 0.500000
vt 0.583333 1.000000
vt 0.541666 0.500000
vt 0.541666 1.000000
vt 0.500000 0.500000
vt 0.500000 1.000000
vt 0.458333 0.500000
vt 0.458333 1.000000
vt 0.416666 0.500000
vt 0.416666 1.000000
vt 0.375000 0.500000
vt 0.375000 1.000000
vt 0.333333 0.500000
vt 0.333333 1.000000
vt 0.291667 0.500000
vt 0.291667 1.000000
vt 0.250000 0.500000
vt 0.250000 1.000000
vt 0.208333 0.500000
vt 0.208333 1.000000
vt 0.166666 0.500000
vt 0.166666 1.000000
vt 0.125000 0.500000
vt 0.125000 1.000000
vt 0.083333 0.500000
vt 0.083333 1.000000
vt 0.041666 0.500000
vt 0.041666 1.000000
vt 0.958333 1.000000
vt -0.000000 1.000000
vt 1.000000 1.000000
vt 0.916667 1.000000
vt 0.875000 1.000000
vt 0.833333 1.000000
vt 0.791667 1.000000
vt 0.750000 1.000000
vt 0.708333 1.000000
vt 0.666667 1.000000
vt 0.625000 1.000000
vt 0.583333 1.000000
vt 0.541666 1.000000
vt 0.500000 1.000000
vt 0.458333 1.000000
vt 0.416666 1.000000
vt 0.375000 1.000000
vt 0.333333 1.000000
vt 0.291667 1.000000
vt 0.250000 1.000000
vt 0.208333 1.000000
vt 0.166666 1.000000
vt 0.125000 1.000000
vt 0.083333 1.000000
vt 0.041666 1.000000
vt 0.312117 0.481822
vt 0.958333 1.000000
vt 0.250000 0.490000
vt 1.000000 1.000000
vt -0.000000 1.000000
vt 0.370000 0.457846
vt 0.916667 1.000000
vt 0.419706 0.419706
vt 0.875000 1.000000
vt 0.457846 0.370000
vt 0.833333 1.000000
vt 0.481822 0.312117
vt 0.791667 1.000000
vt 0.490000 0.250000
vt 0.750000 1.000000
vt 0.481822 0.187883
vt 0.708333 1.000000
vt 0.457846 0.130000
vt 0.666667 1.000000
vt 0.419706 0.080294
vt 0.625000 1.000000
vt 0.370000 0.042154
vt 0.583333 1.000000
vt 0.312117 0.018178
vt 0.541666 1.000000
vt 0.250000 0.010000
vt 0.500000 1.000000
vt 0.187883 0.018178
vt 0.458333 1.000000
vt 0.130000 0.042154
vt 0.416666 1.000000
vt 0.080294 0.080294
vt 0.375000 1.000000
vt 0.042154 0.130000
vt 0.333333 1.000000
vt 0.018178 0.187883
vt 0.291667 1.000000
vt 0.010000 0.250000
vt 0.250000 1.000000
vt 0.018178 0.312117
vt 0.208333 1.000000
vt 0.042154 0.370000
vt 0.166666 1.000000
vt 0.080294 0.419706
vt 0.125000 1.000000
vt 0.130000 0.457846
vt 0.083333 1.000000
vt 0.187883 0.481822
vt 0.041666 1.000000
vt 1.000000 0.500000
vt -0.000000 0.500000
vt 0.750000 0.490000
vt 1.000000 1.000000
vt 0.250000 0.490000
vt -0.000000 1.000000
vt 0.958333 0.500000
vt 0.812117 0.481822
vt 0.958333 1.000000
vt 0.312117 0.481822
vt 0.916667 0.500000
vt 0.870000 0.457846
vt 0.916667 1.000000
vt 0.370000 0.457846
vt 0.875000 0.500000
vt 0.919706 0.419706
vt 0.875000 1.000000
vt 0.419706 0.419706
vt 0.833333 0.500000
vt 0.957846 0.370000
vt 0.833333 1.000000
vt 0.457846 0.370000
vt 0.791667 0.500000
vt 0.981822 0.312117
vt 0.791667 1.000000
vt 0.481822 0.312117
vt 0.750000 0.500000
vt 0.990000 0.250000
vt 0.750000 1.000000
vt 0.490000 0.250000
vt 0.708333 0.500000
vt 0.981822 0.187883
vt 0.708333 1.000000
vt 0.481822 0.187883
vt 0.666667 0.500000
vt 0.957846 0.130000
vt 0.666667 1.000000
vt 0.457846 0.130000
vt 0.625000 0.500000
vt 0.919706 0.080294
vt 0.625000 1.000000
vt 0.419706 0.080294
vt 0.583333 0.500000
vt 0.870000 0.042154
vt 0.583333 1.000000
vt 0.370000 0.042154
vt 0.541666 0.500000
vt 0.812117 0.018178
vt 0.541666 1.000000
vt 0.312117 0.018178
vt 0.500000 0.500000
vt 0.750000 0.010000
vt 0.500000 1.000000
vt 0.250000 0.010000
vt 0.458333 0.500000
vt 0.687883 0.018178
vt 0.458333 1.000000
vt 0.187883 0.018178
vt 0.416666 0.500000
vt 0.630000 0.042154
vt 0.416666 1.000000
vt 0.130000 0.042154
vt 0.375000 0.500000
vt 0.580294 0.080294
vt 0.375000 1.000000
vt 0.080294 0.080294
vt 0.333333 0.500000
vt 0.542154 0.130000
vt 0.333333 1.000000
vt 0.042154 0.130000
vt 0.291667 0.500000
vt 0.518178 0.187883
vt 0.291667 1.000000
vt 0.018178 0.187883
vt 0.250000 0.500000
vt 0.510000 0.250000
vt 0.250000 1.000000
vt 0.010000 0.250000
vt 0.208333 0.500000
vt 0.518178 0.312117
vt 0.208333 1.000000
vt 0.018178 0.312117
vt 0.166666 0.500000
vt 0.542154 0.370000
vt 0.166666 1.000000
vt 0.042154 0.370000
vt 0.125000 0.500000
vt 0.580294 0.419706
vt 0.125000 1.000000
vt 0.080294 0.419706
vt 0.083333 0.500000
vt 0.630000 0.457846
vt 0.130000 0.457846
vt 0.083333 1.000000
vt 0.041666 0.500000
vt 0.687883 0.481822
vt 0.187883 0.481822
vt 0.041666 1.000000
s 0
g BoostPadSmall_Base_Metal
usemtl Base_Metal
f 2/3/1 3/5/1 1/1/1
f 4/6/2 5/7/2 3/5/2
f 6/8/3 7/9/3 5/7/3
f 8/10/4 9/11/4 7/9/4
f 10/12/5 11/13/5 9/11/5
f 12/14/6 13/15/6 11/13/6
f 14/16/7 15/17/7 13/15/7
f 16/18/8 17/19/8 15/17/8
f 18/20/9 19/21/9 17/19/9
f 20/22/10 21/23/10 19/21/10
f 22/24/11 23/25/11 21/23/11
f 24/26/12 25/27/12 23/25/12
f 26/28/13 27/29/13 25/27/13
f 28/30/14 29/31/14 27/29/14
f 30/32/15 31/33/15 29/31/15
f 32/34/16 33/35/16 31/33/16
f 34/36/17 35/37/17 33/35/17
f 36/38/18 37/39/18 35/37/18
f 38/40/19 39/41/19 37/39/19
f 40/42/20 41/43/20 39/41/20
f 42/44/21 43/45/21 41/43/21
f 44/46/22 45/47/22 43/45/22
f 4/6/23 50/53/23 49/51/23
f 46/48/24 47/49/24 45/47/24
f 48/50/25 1/2/25 47/49/25
f 52/55/16 77/86/16 53/56/16
f 28/30/23 61/64/23 62/65/23
f 38/40/23 66/69/23 67/70/23
f 48/50/23 71/74/23 72/75/23
f 12/14/23 55/58/23 14/16/23
f 22/24/23 60/63/23 24/26/23
f 32/34/23 65/68/23 34/36/23
f 42/44/23 70/73/23 44/46/23
f 10/12/23 52/55/23 53/56/23
f 18/20/23 58/61/23 20/22/23
f 30/32/23 62/65/23 63/66/23
f 40/42/23 67/70/23 68/71/23
f 48/50/23 50/52/23 2/4/23
f 4/6/23 51/54/23 6/8/23
f 14/16/23 56/59/23 16/18/23
f 24/26/23 61/64/23 26/28/23
f 34/36/23 66/69/23 36/38/23
f 46/48/23 70/73/23 71/74/23
f 10/12/23 54/57/23 12/14/23
f 22/24/23 58/61/23 59/62/23
f 30/32/23 64/67/23 32/34/23
f 40/42/23 69/72/23 42/44/23
f 6/8/23 52/55/23 8/10/23
f 16/18/23 57/60/23 18/20/23
f 87/105/23 83/97/23 75/81/23
f 67/70/7 92/116/7 68/71/7
f 60/63/25 85/102/25 61/64/25
f 53/56/17 78/88/17 54/57/17
f 68/71/8 93/118/8 69/72/8
f 61/64/1 86/104/1 62/65/1
f 54/57/18 79/90/18 55/58/18
f 69/72/9 94/120/9 70/73/9
f 62/65/2 87/106/2 63/66/2
f 55/58/19 80/92/19 56/59/19
f 70/73/10 95/122/10 71/74/10
f 63/66/3 88/108/3 64/67/3
f 57/60/20 80/92/20 81/94/20
f 71/74/11 96/124/11 72/75/11
f 50/53/13 73/77/13 49/51/13
f 64/67/4 89/110/4 65/68/4
f 57/60/21 82/96/21 58/61/21
f 72/75/12 74/80/12 50/52/12
f 49/51/14 75/82/14 51/54/14
f 65/68/5 90/112/5 66/69/5
f 58/61/22 83/98/22 59/62/22
f 51/54/15 76/84/15 52/55/15
f 66/69/6 91/114/6 67/70/6
f 59/62/24 84/100/24 60/63/24
f 2/3/1 4/6/1 3/5/1
f 4/6/2 6/8/2 5/7/2
f 6/8/3 8/10/3 7/9/3
f 8/10/4 10/12/4 9/11/4
f 10/12/5 12/14/5 11/13/5
f 12/14/6 14/16/6 13/15/6
f 14/16/7 16/18/7 15/17/7
f 16/18/8 18/20/8 17/19/8
f 18/20/9 20/22/9 19/21/9
f 20/22/10 22/24/10 21/23/10
f 22/24/11 24/26/11 23/25/11
f 24/26/12 26/28/12 25/27/12
f 26/28/13 28/30/13 27/29/13
f 28/30/14 30/32/14 29/31/14
f 30/32/15 32/34/15 31/33/15
f 32/34/16 34/36/16 33/35/16
f 34/36/17 36/38/17 35/37/17
f 36/38/18 38/40/18 37/39/18
f 38/40/19 40/42/19 39/41/19
f 40/42/20 42/44/20 41/43/20
f 42/44/21 44/46/21 43/45/21
f 44/46/22 46/48/22 45/47/22
f 4/6/23 2/3/23 50/53/23
f 46/48/24 48/50/24 47/49/24
f 48/50/25 2/4/25 1/2/25
f 52/55/16 76/84/16 77/86/16
f 28/30/23 26/28/23 61/64/23
f 38/40/23 36/38/23 66/69/23
f 48/50/23 46/48/23 71/74/23
f 12/14/23 54/57/23 55/58/23
f 22/24/23 59/62/23 60/63/23
f 32/34/23 64/67/23 65/68/23
f 42/44/23 69/72/23 70/73/23
f 10/12/23 8/10/23 52/55/23
f 18/20/23 57/60/23 58/61/23
f 30/32/23 28/30/23 62/65/23
f 40/42/23 38/40/23 67/70/23
f 48/50/23 72/75/23 50/52/23
f 4/6/23 49/51/23 51/54/23
f 14/16/23 55/58/23 56/59/23
f 24/26/23 60/63/23 61/64/23
f 34/36/23 65/68/23 66/69/23
f 46/48/23 44/46/23 70/73/23
f 10/12/23 53/56/23 54/57/23
f 22/24/23 20/22/23 58/61/23
f 30/32/23 63/66/23 64/67/23
f 40/42/23 68/71/23 69/72/23
f 6/8/23 51/54/23 52/55/23
f 16/18/23 56/59/23 57/60/23
f 75/81/23 73/76/23 95/121/23
f 73/76/23 74/78/23 95/121/23
f 74/78/23 96/123/23 95/121/23
f 95/121/23 94/119/23 93/117/23
f 93/117/23 92/115/23 91/113/23
f 91/113/23 90/111/23 89/109/23
f 89/109/23 88/107/23 87/105/23
f 87/105/23 86/103/23 83/97/23
f 86/103/23 85/101/23 83/97/23
f 85/101/23 84/99/23 83/97/23
f 83/97/23 82/95/23 81/93/23
f 81/93/23 80/91/23 79/89/23
f 79/89/23 78/87/23 77/85/23
f 77/85/23 76/83/23 75/81/23
f 95/121/23 93/117/23 75/81/23
f 93/117/23 91/113/23 75/81/23
f 91/113/23 89/109/23 87/105/23
f 83/97/23 81/93/23 79/89/23
f 79/89/23 77/85/23 83/97/23
f 77/85/23 75/81/23 83/97/23
f 91/113/23 87/105/23 75/81/23
f 67/70/7 91/114/7 92/116/7
f 60/63/25 84/100/25 85/102/25
f 53/56/17 77/86/17 78/88/17
f 68/71/8 92/116/8 93/118/8
f 61/64/1 85/102/1 86/104/1
f 54/57/18 78/88/18 79/90/18
f 69/72/9 93/118/9 94/120/9
f 62/65/2 86/104/2 87/106/2
f 55/58/19 79/90/19 80/92/19
f 70/73/10 94/120/10 95/122/10
f 63/66/3 87/106/3 88/108/3
f 57/60/20 56/59/20 80/92/20
f 71/74/11 95/122/11 96/124/11
f 50/53/13 74/79/13 73/77/13
f 64/67/4 88/108/4 89/110/4
f 57/60/21 81/94/21 82/96/21
f 72/75/12 96/124/12 74/80/12
f 49/51/14 73/77/14 75/82/14
f 65/68/5 89/110/5 90/112/5
f 58/61/22 82/96/22 83/98/22
f 51/54/15 75/82/15 76/84/15
f 66/69/6 90/112/6 91/114/6
f 59/62/24 83/98/24 84/100/24
g BoostPadSmall_Boost_Glow
usemtl Boost_Glow
f 98/128/1 99/131/1 97/125/1
f 100/133/2 101/135/2 99/131/2
f 102/137/3 103/139/3 101/135/3
f 104/141/4 105/143/4 103/139/4
f 106/145/5 107/147/5 105/143/5
f 108/149/6 109/151/6 107/147/6
f 110/153/7 111/155/7 109/151/7
f 112/157/8 113/159/8 111/155/8
f 114/161/9 115/163/9 113/159/9
f 116/165/10 117/167/10 115/163/10
f 118/169/11 119/171/11 117/167/11
f 120/173/12 121/175/12 119/171/12
f 122/177/13 123/179/13 121/175/13
f 124/181/14 125/183/14 123/179/14
f 126/185/15 127/187/15 125/183/15
f 128/189/16 129/191/16 127/187/16
f 130/193/17 131/195/17 129/191/17
f 132/197/18 133/199/18 131/195/18
f 134/201/19 135/203/19 133/199/19
f 136/205/20 137/207/20 135/203/20
f 138/209/21 139/211/21 137/207/21
f 140/213/22 141/215/22 139/211/22
f 134/202/23 118/170/23 102/138/23
f 142/218/24 143/219/24 141/215/24
f 144/222/25 97/126/25 143/219/25
f 111/156/26 127/188/26 143/220/26
f 98/128/1 100/133/1 99/131/1
f 100/133/2 102/137/2 101/135/2
f 102/137/3 104/141/3 103/139/3
f 104/141/4 106/145/4 105/143/4
f 106/145/5 108/149/5 107/147/5
f 108/149/6 110/153/6 109/151/6
f 110/153/7 112/157/7 111/155/7
f 112/157/8 114/161/8 113/159/8
f 114/161/9 116/165/9 115/163/9
f 116/165/10 118/169/10 117/167/10
f 118/169/11 120/173/11 119/171/11
f 120/173/12 122/177/12 121/175/12
f 122/177/13 124/181/13 123/179/13
f 124/181/14 126/185/14 125/183/14
f 126/185/15 128/189/15 127/187/15
f 128/189/16 130/193/16 129/191/16
f 130/193/17 132/197/17 131/195/17
f 132/197/18 134/201/18 133/199/18
f 134/201/19 136/205/19 135/203/19
f 136/205/20 138/209/20 137/207/20
f 138/209/21 140/213/21 139/211/21
f 140/213/22 142/218/22 141/215/22
f 102/138/23 100/134/23 142/217/23
f 100/134/23 98/129/23 142/217/23
f 98/129/23 144/221/23 142/217/23
f 142/217/23 140/214/23 138/210/23
f 138/210/23 136/206/23 142/217/23
f 136/206/23 134/202/23 142/217/23
f 134/202/23 132/198/23 130/194/23
f 130/194/23 128/190/23 126/186/23
f 126/186/23 124/182/23 122/178/23
f 122/178/23 120/174/23 118/170/23
f 118/170/23 116/166/23 110/154/23
f 116/166/23 114/162/23 110/154/23
f 114/162/23 112/158/23 110/154/23
f 110/154/23 108/150/23 106/146/23
f 106/146/23 104/142/23 102/138/23
f 134/202/23 130/194/23 118/170/23
f 130/194/23 126/186/23 118/170/23
f 126/186/23 122/178/23 118/170/23
f 110/154/23 106/146/23 102/138/23
f 102/138/23 142/217/23 134/202/23
f 118/170/23 110/154/23 102/138/23
f 142/218/24 144/222/24 143/219/24
f 144/222/25 98/130/25 97/126/25
f 143/220/26 97/127/26 99/132/26
f 99/132/26 101/136/26 143/220/26
f 101/136/26 103/140/26 143/220/26
f 103/140/26 105/144/26 107/148/26
f 107/148/26 109/152/26 103/140/26
f 109/152/26 111/156/26 103/140/26
f 111/156/26 113/160/26 115/164/26
f 115/164/26 117/168/26 119/172/26
f 119/172/26 121/176/26 123/180/26
f 123/180/26 125/184/26 119/172/26
f 125/184/26 127/188/26 119/172/26
f 127/188/26 129/192/26 131/196/26
f 131/196/26 133/200/26 127/188/26
f 133/200/26 135/204/26 127/188/26
f 135/204/26 137/208/26 139/212/26
f 139/212/26 141/216/26 135/204/26
f 141/216/26 143/220/26 135/204/26
f 111/156/26 115/164/26 127/188/26
f 115/164/26 119/172/26 127/188/26
f 143/220/26 103/140/26 111/156/26
f 127/188/26 135/204/26 143/220/26
